<svg width="158" height="53" viewBox="0 0 158 53" fill="none" xmlns="http://www.w3.org/2000/svg">
    <path d="M11.873 43.875c2.683 2.761 6.824 4.161 12.31 4.161h.689v2.447h-.688c-6.187 0-10.925-1.66-14.08-4.93-3.582-3.713-3.89-8.264-3.909-9.37a4.117 4.117 0 0 1-3.12-.483S0 33.767 0 29.452c0-1.918.908-5.545 4.344-5.545.491 0 .972.09 1.42.26.373-2.457 1.315-3.722 2.21-4.723 2.243-2.51 5.35-3.783 9.233-3.783h7.664l9.143-13.01s-.486 5.07 1.482 9.208l2.526-3.582 4.233 8.647c2.671 1.272 3.395 4.443 3.541 5.259.64-.6 1.184-1.154 1.483-1.476l1.502-1.614.56 2.139c.032.122.777 3.054.28 8.462-.358 3.88-2.79 7.711-2.893 7.872l-.518.809-2.438-.856-.057 1.141h-.635l-1.432-4.476 3.514 1.233c.668-1.226 1.825-3.634 2.038-5.949.211-2.292.185-4.081.094-5.348-.843.781-1.877 1.658-2.842 2.269l.003 1.12h-2.43s-.01-1.532-.021-1.784c-1.475.501-3.32.364-5.693-.972-6.204-3.49-11.441 1.253-11.441 1.253v-7.9h-7.663c-3.165 0-5.663 1.001-7.424 2.973-.74.828-1.753 1.962-1.753 5.487v.97H5.968l-.205-.356a1.646 1.646 0 0 0-1.42-.826c-1.87 0-1.913 2.976-1.913 3.102 0 3.183 1.997 4.207 1.997 4.207.64.346 1.456.21 1.957-.319l1.21-1.278 1.033 2.15-.002 1.759s-.062 4.492 3.248 7.9z" fill="#fff"/>
    <path d="M31.829 26.983c-2.164 0-3.925 1.772-3.925 3.95 0 2.179 1.76 3.95 3.925 3.95s3.925-1.771 3.925-3.95c0-2.178-1.76-3.95-3.925-3.95zm0 5.965a2.009 2.009 0 0 1-2.002-2.015c0-1.113.896-2.015 2.002-2.015 1.106 0 2.002.902 2.002 2.015a2.009 2.009 0 0 1-2.002 2.015zM19.485 28.594a2.335 2.335 0 0 0-2.325 2.34c0 1.29 1.043 2.339 2.325 2.339a2.335 2.335 0 0 0 2.325-2.34c0-1.29-1.043-2.34-2.325-2.34zM33.546 38.906c-.1-.568-.067-1.036-2.06-.434-.837.252-3.416.89-5.996.89-2.579 0-5.159-.638-5.996-.89-1.992-.602-1.96-.134-2.059.434-.1.568.498 1.972 2.657 3.442.848.578 3.063 1.383 5.298 1.392 1.671.006 3.35-.417 4.481-.877l.549 1.31 1.234-.826c.135-.09.825-.585 1.183-1.479.175-.44.206-1.008.185-1.523.439-.63.575-1.146.524-1.439zm-8.056 3.593c-1.677 0-3.038-.283-3.038-.633 0-.349 1.36-.632 3.038-.632 1.678 0 3.039.283 3.039.632 0 .35-1.36.633-3.039.633zm6.208-1.092c-.128.32-.33.56-.49.714-.13.127-.233.197-.233.197L30 39.991l1.698-.524s.233 1.357 0 1.94zM69.291 28.156h5.626v1.61c.78-1.186 1.95-1.893 3.342-1.893 2.701 0 4.624 1.809 4.624 5.03v9.384h-5.765V34.46c0-1.046-.335-1.555-1.059-1.555s-1.114.537-1.114 1.555v7.829h-5.653V28.156h-.001zM86.782 21.244c1.866 0 3.147 1.328 3.147 3.222 0 1.866-1.28 3.166-3.147 3.166-1.866 0-3.147-1.3-3.147-3.166 0-1.894 1.31-3.222 3.147-3.222zm2.925 6.912v14.132h-5.85V28.156h5.85zM90.682 28.155h5.654v1.979c.835-1.498 2.117-2.261 3.676-2.261 1.755 0 2.981.735 3.621 2.148.808-1.385 2.089-2.148 3.676-2.148 2.702 0 4.484 1.809 4.484 5.03v9.384h-5.709v-7.829c0-1.045-.251-1.554-.975-1.554-.725 0-1.031.537-1.031 1.554v7.83h-5.71v-7.83c0-1.045-.25-1.554-.974-1.554s-1.03.537-1.03 1.554v7.83h-5.682V28.154zM129.15 37.568l5.348-4.664h-5.348v-4.748h12.896v4.777l-5.292 4.578h5.292v4.777H129.15v-4.72zM142.548 35.221c0-3.985 2.952-7.348 7.38-7.348 4.346 0 7.381 3.052 7.381 7.292v1.837h-9.386c.446.848 1.253 1.216 2.089 1.216.974 0 1.671-.424 2.088-1.018l4.541 2.007c-1.337 1.809-3.259 3.363-6.741 3.363-4.762 0-7.352-3.194-7.352-7.349zm5.375-1.921h4.039c-.418-.735-1.086-1.102-1.977-1.102-.892 0-1.616.395-2.062 1.102zM62.661 28.154v1.611c-.861-1.652-3.386-2.471-5.858-1.593-2.397.851-4.223 3.424-4.223 6.985 0 1.677.346 3.181 1.012 4.373 1.106 1.979 3.034 3.143 5.266 3.143 2.521 0 3.77-2.066 4.255-3.33 0 0 .33.487.02 1.578-.31 1.092-.89 1.365-.89 1.365h6.044V28.154h-5.626zm-2.176 9.306c-1.214 0-2.199-1-2.199-2.231 0-1.233.985-2.232 2.199-2.232s2.199 1 2.199 2.232c0 1.232-.985 2.23-2.199 2.23zM122.596 28.156v1.611c-.862-1.652-3.386-2.471-5.859-1.593-2.396.851-4.222 3.424-4.222 6.985 0 1.677.346 3.18 1.012 4.373 1.106 1.979 3.033 3.143 5.266 3.143 2.521 0 3.769-2.066 4.255-3.33 0 0 .33.487.019 1.578-.311 1.092-.89 1.365-.89 1.365h6.045V28.156h-5.626zm-2.176 9.306c-1.215 0-2.199-1-2.199-2.232 0-1.232.984-2.23 2.199-2.23 1.214 0 2.198.998 2.198 2.23 0 1.233-.984 2.232-2.198 2.232z" fill="#fff"/>
</svg>
